<mxfile host="app.diagrams.net" modified="2024-02-05T15:37:52.365Z" agent="Mozilla/5.0 (Macintosh; Intel Mac OS X 10_15_7) AppleWebKit/537.36 (KHTML, like Gecko) Chrome/121.0.0.0 Safari/537.36" etag="wo3vGBLm3DcjvtxJKCNO" version="23.0.2" type="device">
  <diagram name="PÃ¡gina-1" id="r-aXSgcU5JBEbpTMIJgD">
    <mxGraphModel dx="1481" dy="468" grid="1" gridSize="10" guides="1" tooltips="1" connect="1" arrows="1" fold="1" page="1" pageScale="1" pageWidth="827" pageHeight="1169" math="0" shadow="0">
      <root>
        <mxCell id="0" />
        <mxCell id="1" parent="0" />
        <mxCell id="aUhPIjR5X9QtuwryqMT6-56" value="" style="rounded=0;whiteSpace=wrap;html=1;dashed=1;fillColor=none;" vertex="1" parent="1">
          <mxGeometry x="210" y="188" width="100" height="50" as="geometry" />
        </mxCell>
        <mxCell id="aUhPIjR5X9QtuwryqMT6-41" value="" style="rounded=0;whiteSpace=wrap;html=1;dashed=1;fillColor=none;" vertex="1" parent="1">
          <mxGeometry x="192" y="311" width="130" height="144" as="geometry" />
        </mxCell>
        <mxCell id="aUhPIjR5X9QtuwryqMT6-33" value="" style="rounded=0;whiteSpace=wrap;html=1;dashed=1;fillColor=none;" vertex="1" parent="1">
          <mxGeometry x="222" y="500" width="77.5" height="45" as="geometry" />
        </mxCell>
        <mxCell id="aUhPIjR5X9QtuwryqMT6-27" value="" style="rounded=0;whiteSpace=wrap;html=1;dashed=1;fillColor=none;" vertex="1" parent="1">
          <mxGeometry x="10" y="240" width="130" height="130" as="geometry" />
        </mxCell>
        <mxCell id="aUhPIjR5X9QtuwryqMT6-1" value="RedditAPI" style="text;html=1;strokeColor=none;fillColor=none;align=center;verticalAlign=middle;whiteSpace=wrap;rounded=0;" vertex="1" parent="1">
          <mxGeometry x="170" y="110" width="60" height="30" as="geometry" />
        </mxCell>
        <mxCell id="aUhPIjR5X9QtuwryqMT6-2" value="DiscordAPI" style="text;html=1;strokeColor=none;fillColor=none;align=center;verticalAlign=middle;whiteSpace=wrap;rounded=0;" vertex="1" parent="1">
          <mxGeometry x="290" y="110" width="60" height="30" as="geometry" />
        </mxCell>
        <mxCell id="aUhPIjR5X9QtuwryqMT6-3" value="Processor" style="text;html=1;strokeColor=none;fillColor=none;align=center;verticalAlign=middle;whiteSpace=wrap;rounded=0;" vertex="1" parent="1">
          <mxGeometry x="222.5" y="200" width="75" height="30" as="geometry" />
        </mxCell>
        <mxCell id="aUhPIjR5X9QtuwryqMT6-4" value="CodeRegEx" style="text;html=1;strokeColor=none;fillColor=none;align=center;verticalAlign=middle;whiteSpace=wrap;rounded=0;" vertex="1" parent="1">
          <mxGeometry x="212.5" y="330" width="95" height="30" as="geometry" />
        </mxCell>
        <mxCell id="aUhPIjR5X9QtuwryqMT6-6" value="ImagePreProcessor" style="text;html=1;strokeColor=none;fillColor=none;align=center;verticalAlign=middle;whiteSpace=wrap;rounded=0;" vertex="1" parent="1">
          <mxGeometry x="20" y="260" width="110" height="30" as="geometry" />
        </mxCell>
        <mxCell id="aUhPIjR5X9QtuwryqMT6-7" value="ImageOCR" style="text;html=1;strokeColor=none;fillColor=none;align=center;verticalAlign=middle;whiteSpace=wrap;rounded=0;" vertex="1" parent="1">
          <mxGeometry x="30" y="330" width="90" height="30" as="geometry" />
        </mxCell>
        <mxCell id="aUhPIjR5X9QtuwryqMT6-8" value="CodePostProcessor" style="text;html=1;strokeColor=none;fillColor=none;align=center;verticalAlign=middle;whiteSpace=wrap;rounded=0;" vertex="1" parent="1">
          <mxGeometry x="202" y="410" width="115" height="30" as="geometry" />
        </mxCell>
        <mxCell id="aUhPIjR5X9QtuwryqMT6-9" value="MtGA API" style="text;html=1;strokeColor=none;fillColor=none;align=center;verticalAlign=middle;whiteSpace=wrap;rounded=0;" vertex="1" parent="1">
          <mxGeometry x="230" y="515" width="60" height="30" as="geometry" />
        </mxCell>
        <mxCell id="aUhPIjR5X9QtuwryqMT6-10" value="" style="endArrow=classic;html=1;rounded=0;exitX=0.5;exitY=1;exitDx=0;exitDy=0;entryX=0.25;entryY=0;entryDx=0;entryDy=0;" edge="1" parent="1" source="aUhPIjR5X9QtuwryqMT6-1" target="aUhPIjR5X9QtuwryqMT6-3">
          <mxGeometry width="50" height="50" relative="1" as="geometry">
            <mxPoint x="390" y="360" as="sourcePoint" />
            <mxPoint x="245" y="180" as="targetPoint" />
          </mxGeometry>
        </mxCell>
        <mxCell id="aUhPIjR5X9QtuwryqMT6-11" value="" style="endArrow=classic;html=1;rounded=0;exitX=0.5;exitY=1;exitDx=0;exitDy=0;entryX=0.75;entryY=0;entryDx=0;entryDy=0;" edge="1" parent="1" source="aUhPIjR5X9QtuwryqMT6-2" target="aUhPIjR5X9QtuwryqMT6-3">
          <mxGeometry width="50" height="50" relative="1" as="geometry">
            <mxPoint x="190" y="160" as="sourcePoint" />
            <mxPoint x="280" y="180" as="targetPoint" />
          </mxGeometry>
        </mxCell>
        <mxCell id="aUhPIjR5X9QtuwryqMT6-12" value="" style="endArrow=classic;html=1;rounded=0;exitX=0.5;exitY=1;exitDx=0;exitDy=0;entryX=0.5;entryY=0;entryDx=0;entryDy=0;" edge="1" parent="1" source="aUhPIjR5X9QtuwryqMT6-3" target="aUhPIjR5X9QtuwryqMT6-4">
          <mxGeometry width="50" height="50" relative="1" as="geometry">
            <mxPoint x="390" y="400" as="sourcePoint" />
            <mxPoint x="440" y="350" as="targetPoint" />
          </mxGeometry>
        </mxCell>
        <mxCell id="aUhPIjR5X9QtuwryqMT6-13" value="" style="endArrow=classic;html=1;rounded=0;entryX=0.5;entryY=0;entryDx=0;entryDy=0;exitX=0.5;exitY=1;exitDx=0;exitDy=0;" edge="1" parent="1" source="aUhPIjR5X9QtuwryqMT6-4" target="aUhPIjR5X9QtuwryqMT6-8">
          <mxGeometry width="50" height="50" relative="1" as="geometry">
            <mxPoint x="260" y="360" as="sourcePoint" />
            <mxPoint x="270" y="340" as="targetPoint" />
          </mxGeometry>
        </mxCell>
        <mxCell id="aUhPIjR5X9QtuwryqMT6-14" value="" style="endArrow=classic;html=1;rounded=0;entryX=0.5;entryY=0;entryDx=0;entryDy=0;exitX=0.5;exitY=1;exitDx=0;exitDy=0;" edge="1" parent="1" source="aUhPIjR5X9QtuwryqMT6-8" target="aUhPIjR5X9QtuwryqMT6-9">
          <mxGeometry width="50" height="50" relative="1" as="geometry">
            <mxPoint x="260" y="430" as="sourcePoint" />
            <mxPoint x="270" y="410" as="targetPoint" />
          </mxGeometry>
        </mxCell>
        <mxCell id="aUhPIjR5X9QtuwryqMT6-15" value="" style="endArrow=classic;html=1;rounded=0;entryX=0.5;entryY=0;entryDx=0;entryDy=0;exitX=0;exitY=0.5;exitDx=0;exitDy=0;" edge="1" parent="1" source="aUhPIjR5X9QtuwryqMT6-3" target="aUhPIjR5X9QtuwryqMT6-6">
          <mxGeometry width="50" height="50" relative="1" as="geometry">
            <mxPoint x="270" y="440" as="sourcePoint" />
            <mxPoint x="130" y="275" as="targetPoint" />
          </mxGeometry>
        </mxCell>
        <mxCell id="aUhPIjR5X9QtuwryqMT6-16" value="[]string" style="text;html=1;strokeColor=none;fillColor=none;align=center;verticalAlign=middle;whiteSpace=wrap;rounded=0;" vertex="1" parent="1">
          <mxGeometry x="260" y="370" width="60" height="30" as="geometry" />
        </mxCell>
        <mxCell id="aUhPIjR5X9QtuwryqMT6-17" value="[]string" style="text;html=1;strokeColor=none;fillColor=none;align=center;verticalAlign=middle;whiteSpace=wrap;rounded=0;" vertex="1" parent="1">
          <mxGeometry x="272" y="460" width="50" height="30" as="geometry" />
        </mxCell>
        <mxCell id="aUhPIjR5X9QtuwryqMT6-18" value="" style="endArrow=classic;html=1;rounded=0;entryX=0.618;entryY=1;entryDx=0;entryDy=0;entryPerimeter=0;" edge="1" parent="1" target="aUhPIjR5X9QtuwryqMT6-8">
          <mxGeometry width="50" height="50" relative="1" as="geometry">
            <mxPoint x="273" y="510" as="sourcePoint" />
            <mxPoint x="293" y="450" as="targetPoint" />
          </mxGeometry>
        </mxCell>
        <mxCell id="aUhPIjR5X9QtuwryqMT6-19" value="" style="endArrow=classic;html=1;rounded=0;exitX=1;exitY=0.25;exitDx=0;exitDy=0;entryX=0;entryY=0.25;entryDx=0;entryDy=0;" edge="1" parent="1" source="aUhPIjR5X9QtuwryqMT6-7" target="aUhPIjR5X9QtuwryqMT6-4">
          <mxGeometry width="50" height="50" relative="1" as="geometry">
            <mxPoint x="390" y="390" as="sourcePoint" />
            <mxPoint x="440" y="340" as="targetPoint" />
          </mxGeometry>
        </mxCell>
        <mxCell id="aUhPIjR5X9QtuwryqMT6-20" value="" style="endArrow=classic;html=1;rounded=0;exitX=0;exitY=0.75;exitDx=0;exitDy=0;entryX=1;entryY=0.75;entryDx=0;entryDy=0;" edge="1" parent="1" source="aUhPIjR5X9QtuwryqMT6-4" target="aUhPIjR5X9QtuwryqMT6-7">
          <mxGeometry width="50" height="50" relative="1" as="geometry">
            <mxPoint x="150" y="345" as="sourcePoint" />
            <mxPoint x="100" y="390" as="targetPoint" />
          </mxGeometry>
        </mxCell>
        <mxCell id="aUhPIjR5X9QtuwryqMT6-21" value="" style="endArrow=classic;html=1;rounded=0;exitX=0.5;exitY=1;exitDx=0;exitDy=0;entryX=0.5;entryY=0;entryDx=0;entryDy=0;" edge="1" parent="1" source="aUhPIjR5X9QtuwryqMT6-6" target="aUhPIjR5X9QtuwryqMT6-7">
          <mxGeometry width="50" height="50" relative="1" as="geometry">
            <mxPoint x="350" y="384" as="sourcePoint" />
            <mxPoint x="400" y="334" as="targetPoint" />
          </mxGeometry>
        </mxCell>
        <mxCell id="aUhPIjR5X9QtuwryqMT6-23" value="string" style="text;html=1;strokeColor=none;fillColor=none;align=center;verticalAlign=middle;whiteSpace=wrap;rounded=0;" vertex="1" parent="1">
          <mxGeometry x="255" y="260" width="60" height="30" as="geometry" />
        </mxCell>
        <mxCell id="aUhPIjR5X9QtuwryqMT6-24" value="img" style="text;html=1;strokeColor=none;fillColor=none;align=center;verticalAlign=middle;whiteSpace=wrap;rounded=0;" vertex="1" parent="1">
          <mxGeometry x="120" y="200" width="60" height="30" as="geometry" />
        </mxCell>
        <mxCell id="aUhPIjR5X9QtuwryqMT6-25" value="[]img" style="text;html=1;strokeColor=none;fillColor=none;align=center;verticalAlign=middle;whiteSpace=wrap;rounded=0;" vertex="1" parent="1">
          <mxGeometry x="35" y="290" width="40" height="30" as="geometry" />
        </mxCell>
        <mxCell id="aUhPIjR5X9QtuwryqMT6-28" value="" style="rounded=0;whiteSpace=wrap;html=1;dashed=1;fillColor=none;" vertex="1" parent="1">
          <mxGeometry x="160" y="100" width="80" height="50" as="geometry" />
        </mxCell>
        <mxCell id="aUhPIjR5X9QtuwryqMT6-29" value="" style="rounded=0;whiteSpace=wrap;html=1;dashed=1;fillColor=none;" vertex="1" parent="1">
          <mxGeometry x="280" y="100" width="80" height="50" as="geometry" />
        </mxCell>
        <mxCell id="aUhPIjR5X9QtuwryqMT6-35" value="[]string" style="text;html=1;strokeColor=none;fillColor=none;align=center;verticalAlign=middle;whiteSpace=wrap;rounded=0;" vertex="1" parent="1">
          <mxGeometry x="140" y="350" width="60" height="30" as="geometry" />
        </mxCell>
        <mxCell id="aUhPIjR5X9QtuwryqMT6-36" value="string" style="text;html=1;strokeColor=none;fillColor=none;align=center;verticalAlign=middle;whiteSpace=wrap;rounded=0;" vertex="1" parent="1">
          <mxGeometry x="140" y="310" width="60" height="30" as="geometry" />
        </mxCell>
        <mxCell id="aUhPIjR5X9QtuwryqMT6-37" value="string | img" style="text;html=1;strokeColor=none;fillColor=none;align=center;verticalAlign=middle;whiteSpace=wrap;rounded=0;" vertex="1" parent="1">
          <mxGeometry x="223.5" y="157" width="70" height="30" as="geometry" />
        </mxCell>
        <mxCell id="aUhPIjR5X9QtuwryqMT6-38" value="" style="endArrow=classic;html=1;rounded=0;exitX=0.5;exitY=1;exitDx=0;exitDy=0;entryX=0;entryY=0.5;entryDx=0;entryDy=0;" edge="1" parent="1" source="aUhPIjR5X9QtuwryqMT6-7" target="aUhPIjR5X9QtuwryqMT6-8">
          <mxGeometry width="50" height="50" relative="1" as="geometry">
            <mxPoint x="270" y="360" as="sourcePoint" />
            <mxPoint x="320" y="310" as="targetPoint" />
          </mxGeometry>
        </mxCell>
        <mxCell id="aUhPIjR5X9QtuwryqMT6-39" value="[]string" style="text;html=1;strokeColor=none;fillColor=none;align=center;verticalAlign=middle;whiteSpace=wrap;rounded=0;" vertex="1" parent="1">
          <mxGeometry x="90" y="390" width="60" height="30" as="geometry" />
        </mxCell>
        <mxCell id="aUhPIjR5X9QtuwryqMT6-44" value="&lt;font style=&quot;font-size: 10px;&quot;&gt;Praw&lt;/font&gt;" style="rounded=1;whiteSpace=wrap;html=1;" vertex="1" parent="1">
          <mxGeometry x="150" y="90" width="30" height="20" as="geometry" />
        </mxCell>
        <mxCell id="aUhPIjR5X9QtuwryqMT6-45" value="&lt;font style=&quot;font-size: 10px;&quot;&gt;Tesseract&lt;/font&gt;" style="rounded=1;whiteSpace=wrap;html=1;" vertex="1" parent="1">
          <mxGeometry x="-15" y="360" width="50" height="20" as="geometry" />
        </mxCell>
        <mxCell id="aUhPIjR5X9QtuwryqMT6-46" value="&lt;font style=&quot;font-size: 10px;&quot;&gt;PIL&lt;/font&gt;" style="rounded=1;whiteSpace=wrap;html=1;" vertex="1" parent="1">
          <mxGeometry x="40" y="230" width="30" height="20" as="geometry" />
        </mxCell>
        <mxCell id="aUhPIjR5X9QtuwryqMT6-47" value="&lt;font style=&quot;font-size: 10px;&quot;&gt;OpenCV&lt;/font&gt;" style="rounded=1;whiteSpace=wrap;html=1;" vertex="1" parent="1">
          <mxGeometry x="-15" y="230" width="50" height="20" as="geometry" />
        </mxCell>
        <mxCell id="aUhPIjR5X9QtuwryqMT6-54" value="&lt;font style=&quot;font-size: 10px;&quot;&gt;regex&lt;/font&gt;" style="rounded=1;whiteSpace=wrap;html=1;" vertex="1" parent="1">
          <mxGeometry x="300" y="320" width="30" height="20" as="geometry" />
        </mxCell>
      </root>
    </mxGraphModel>
  </diagram>
</mxfile>
